<?xml version="1.0" encoding="UTF-8"?>
<svg width="49" height="60" viewBox="0 0 49 60" fill="none" xmlns="http://www.w3.org/2000/svg">
  <path d="M24.5 0C11.2 0 0 11.2 0 24.5C0 37.8 11.2 49 24.5 49C37.8 49 49 37.8 49 24.5C49 11.2 37.8 0 24.5 0ZM24.5 44.1C14.7 44.1 6.9 36.3 6.9 26.5C6.9 16.7 14.7 8.9 24.5 8.9C34.3 8.9 42.1 16.7 42.1 26.5C42.1 36.3 34.3 44.1 24.5 44.1Z" fill="url(#paint0_linear)"/>
  <path d="M24.5 15.3C19.2 15.3 14.9 19.6 14.9 24.9C14.9 30.2 19.2 34.5 24.5 34.5C29.8 34.5 34.1 30.2 34.1 24.9C34.1 19.6 29.8 15.3 24.5 15.3Z" fill="url(#paint1_linear)"/>
  <path d="M24.5 38.5C18.2 38.5 13 43.7 13 50H36C36 43.7 30.8 38.5 24.5 38.5Z" fill="url(#paint2_linear)"/>
  <defs>
    <linearGradient id="paint0_linear" x1="0" y1="0" x2="49" y2="49" gradientUnits="userSpaceOnUse">
      <stop stop-color="white"/>
      <stop offset="1" stop-color="#7C4D25"/>
    </linearGradient>
    <linearGradient id="paint1_linear" x1="14.9" y1="15.3" x2="34.1" y2="34.5" gradientUnits="userSpaceOnUse">
      <stop stop-color="white"/>
      <stop offset="1" stop-color="#7C4D25"/>
    </linearGradient>
    <linearGradient id="paint2_linear" x1="13" y1="38.5" x2="36" y2="50" gradientUnits="userSpaceOnUse">
      <stop stop-color="white"/>
      <stop offset="1" stop-color="#7C4D25"/>
    </linearGradient>
  </defs>
</svg> 