<svg width="11" height="14" viewBox="0 0 11 14" fill="none" xmlns="http://www.w3.org/2000/svg">
<path d="M6.2959 1.76367L6.24609 1.75586L6.29492 1.76367L5.2168 8.35938C6.12678 7.7825 6.75114 6.78227 7.14062 5.61426L7.23633 5.30176C7.43696 4.57204 7.49247 3.841 7.41211 3.2373C7.31972 2.54343 7.05053 2.03514 6.63672 1.87012L6.65527 1.82324L6.67383 1.77734L8.09961 2.34375L8.24414 2.40527C9.66638 3.06108 10.3774 4.83268 9.9043 6.5166L9.85254 6.68457C9.33717 8.23742 8.23469 8.88247 7.06738 9.09766C6.39736 9.22116 5.70557 9.20062 5.08984 9.13379L4.6582 11.7793V11.7803C4.6169 12.0315 4.67056 12.3034 4.79395 12.5234C4.91073 12.7316 5.08757 12.8879 5.30078 12.9414L5.35059 12.9512L5.34082 13.0498H5.31836V13.0488C5.30534 13.0463 5.29303 13.0412 5.28027 13.0381L4.43848 12.874L3.37207 12.6709L2.29297 12.4688L1.87109 12.3877L0.994141 12.2256C0.992948 12.2254 0.991427 12.2258 0.990234 12.2256L1.00879 12.127L1.02148 12.1289C1.24052 12.1673 1.46283 12.0848 1.64355 11.9277C1.82729 11.7679 1.96351 11.5353 2.00488 11.291L3.45605 2.20703L3.4668 2.11133C3.48262 1.88802 3.42885 1.65593 3.32227 1.46484C3.20056 1.24676 3.01388 1.0867 2.79199 1.04883H2.78906L2.79785 1L2.80664 0.951172V0.952148L2.80762 0.951172L3.6875 1.11328H3.68848L4.10938 1.19434H4.11035L5.4248 1.4502L6.25586 1.6123L6.2959 1.62012V1.76367Z" fill="url(#paint0_linear_26_670)" stroke="#7C4D25" stroke-width="0.1" stroke-miterlimit="10"/>
<defs>
<linearGradient id="paint0_linear_26_670" x1="-0.993553" y1="6.83128" x2="8.03489" y2="6.83128" gradientUnits="userSpaceOnUse">
<stop stop-color="white"/>
<stop offset="1" stop-color="#7C4D25"/>
</linearGradient>
</defs>
</svg>
